HIERARCHY
ROOT hip
{
  OFFSET 0 0 0
  CHANNELS 6 Xposition Yposition Zposition Zrotation Yrotation Xrotation
  JOINT abdomen
  {
    OFFSET 0 20.6881 -0.73152
    CHANNELS 3 Zrotation Xrotation Yrotation
    JOINT chest
    {
      OFFSET 0 11.7043 -0.48768
      CHANNELS 3 Zrotation Xrotation Yrotation
      JOINT neck
      {
        OFFSET 0 22.1894 -2.19456
        CHANNELS 3 Zrotation Xrotation Yrotation
        JOINT head
        {
          OFFSET -0.24384 7.07133 1.2192
          CHANNELS 3 Zrotation Xrotation Yrotation
          JOINT leftEye
          {
            OFFSET 4.14528 8.04674 8.04672
            CHANNELS 3 Zrotation Xrotation Yrotation
            End Site
            {
              OFFSET 1 0 0
            }
          }
          JOINT rightEye
          {
            OFFSET -3.6576 8.04674 8.04672
            CHANNELS 3 Zrotation Xrotation Yrotation
            End Site
            {
              OFFSET 1 0 0
            }
          }
        }
      }
      JOINT rCollar
      {
        OFFSET -2.68224 19.2634 -4.8768
        CHANNELS 3 Zrotation Xrotation Yrotation
        JOINT rShldr
        {
          OFFSET -8.77824 -1.95073 1.46304
          CHANNELS 3 Zrotation Xrotation Yrotation
          JOINT rForeArm
          {
            OFFSET -28.1742 -1.7115 0.48768
            CHANNELS 3 Zrotation Xrotation Yrotation
            JOINT rHand
            {
              OFFSET -22.5879 0.773209 7.07136
              CHANNELS 3 Zrotation Xrotation Yrotation
              JOINT rThumb1
              {
                OFFSET -1.2192 -0.487915 3.41376
                CHANNELS 3 Zrotation Xrotation Yrotation
                JOINT rThumb2
                {
                  OFFSET -3.37035 -0.52449 3.41376
                  CHANNELS 3 Zrotation Xrotation Yrotation
                  End Site
                  {
                    OFFSET -1.78271 -1.18214 1.43049
                  }
                }
              }
              JOINT rIndex1
              {
                OFFSET -7.75947 0.938293 5.60832
                CHANNELS 3 Zrotation Xrotation Yrotation
                JOINT rIndex2
                {
                  OFFSET -2.54057 -0.884171 1.56538
                  CHANNELS 3 Zrotation Xrotation Yrotation
                  End Site
                  {
                    OFFSET -1.62519 -0.234802 1.16502
                  }
                }
              }
              JOINT rMid1
              {
                OFFSET -8.24714 1.18213 3.41376
                CHANNELS 3 Zrotation Xrotation Yrotation
                JOINT rMid2
                {
                  OFFSET -3.10165 -0.590103 1.0647
                  CHANNELS 3 Zrotation Xrotation Yrotation
                  End Site
                  {
                    OFFSET -2.48547 -0.328903 0.83742
                  }
                }
              }
              JOINT rRing1
              {
                OFFSET -8.82822 0.546677 1.51678
                CHANNELS 3 Zrotation Xrotation Yrotation
                JOINT rRing2
                {
                  OFFSET -2.60934 -0.819778 -0.0198488
                  CHANNELS 3 Zrotation Xrotation Yrotation
                  End Site
                  {
                    OFFSET -2.33842 -0.294052 0.168128
                  }
                }
              }
              JOINT rPinky1
              {
                OFFSET -8.27202 -0.0477905 -0.4584
                CHANNELS 3 Zrotation Xrotation Yrotation
                JOINT rPinky2
                {
                  OFFSET -1.82734 -0.647385 -0.700984
                  CHANNELS 3 Zrotation Xrotation Yrotation
                  End Site
                  {
                    OFFSET -1.69225 -0.51767 -0.607171
                  }
                }
              }
            }
          }
        }
      }
      JOINT lCollar
      {
        OFFSET 2.68224 19.2634 -4.8768
        CHANNELS 3 Zrotation Xrotation Yrotation
        JOINT lShldr
        {
          OFFSET 8.77824 -1.95073 1.46304
          CHANNELS 3 Zrotation Xrotation Yrotation
          JOINT lForeArm
          {
            OFFSET 28.1742 -1.7115 0.48768
            CHANNELS 3 Zrotation Xrotation Yrotation
            JOINT lHand
            {
              OFFSET 22.5879 0.773209 7.07136
              CHANNELS 3 Zrotation Xrotation Yrotation
              JOINT lThumb1
              {
                OFFSET 1.2192 -0.487915 3.41376
                CHANNELS 3 Zrotation Xrotation Yrotation
                JOINT lThumb2
                {
                  OFFSET 3.37035 -0.52449 3.41376
                  CHANNELS 3 Zrotation Xrotation Yrotation
                  End Site
                  {
                    OFFSET 1.78271 -1.18214 1.43049
                  }
                }
              }
              JOINT lIndex1
              {
                OFFSET 7.75947 0.938293 5.60832
                CHANNELS 3 Zrotation Xrotation Yrotation
                JOINT lIndex2
                {
                  OFFSET 2.54057 -0.884171 1.56538
                  CHANNELS 3 Zrotation Xrotation Yrotation
                  End Site
                  {
                    OFFSET 1.62519 -0.234802 1.16502
                  }
                }
              }
              JOINT lMid1
              {
                OFFSET 8.24714 1.18213 3.41376
                CHANNELS 3 Zrotation Xrotation Yrotation
                JOINT lMid2
                {
                  OFFSET 3.10165 -0.590103 1.0647
                  CHANNELS 3 Zrotation Xrotation Yrotation
                  End Site
                  {
                    OFFSET 2.48547 -0.328903 0.83742
                  }
                }
              }
              JOINT lRing1
              {
                OFFSET 8.82822 0.546677 1.51678
                CHANNELS 3 Zrotation Xrotation Yrotation
                JOINT lRing2
                {
                  OFFSET 2.60934 -0.819778 -0.0198488
                  CHANNELS 3 Zrotation Xrotation Yrotation
                  End Site
                  {
                    OFFSET 2.33842 -0.294052 0.168128
                  }
                }
              }
              JOINT lPinky1
              {
                OFFSET 8.27202 -0.0477905 -0.4584
                CHANNELS 3 Zrotation Xrotation Yrotation
                JOINT lPinky2
                {
                  OFFSET 1.82734 -0.647385 -0.700984
                  CHANNELS 3 Zrotation Xrotation Yrotation
                  End Site
                  {
                    OFFSET 1.69225 -0.51767 -0.607171
                  }
                }
              }
            }
          }
        }
      }
    }
  }
  JOINT rButtock
  {
    OFFSET -8.77824 4.35084 1.2192
    CHANNELS 3 Zrotation Xrotation Yrotation
    JOINT rThigh
    {
      OFFSET 0 -1.70687 -2.19456
      CHANNELS 3 Zrotation Xrotation Yrotation
      JOINT rShin
      {
        OFFSET 0 -36.8199 0.73152
        CHANNELS 3 Zrotation Xrotation Yrotation
        JOINT rFoot
        {
          OFFSET 0.73152 -45.1104 -5.12064
          CHANNELS 3 Zrotation Xrotation Yrotation
          End Site
          {
            OFFSET -1.1221 -3.69964 12.103
          }
        }
      }
    }
  }
  JOINT lButtock
  {
    OFFSET 8.77824 4.35084 1.2192
    CHANNELS 3 Zrotation Xrotation Yrotation
    JOINT lThigh
    {
      OFFSET 0 -1.70687 -2.19456
      CHANNELS 3 Zrotation Xrotation Yrotation
      JOINT lShin
      {
        OFFSET 0 -36.8199 0.73152
        CHANNELS 3 Zrotation Xrotation Yrotation
        JOINT lFoot
        {
          OFFSET -0.73152 -45.1104 -5.12064
          CHANNELS 3 Zrotation Xrotation Yrotation
          End Site
          {
            OFFSET 1.1221 -3.69964 12.103
          }
        }
      }
    }
  }
}
MOTION
Frames:	7
Frame Time:	0.03333
-1.6102999999999998 55.6693 77.2514 -158.32659 50.547138 -154.329686 2.235122 14.929071 -4.423328 8.749168 -11.344824 12.402132 3.509279 21.029287 66.068053 -28.204978 -18.63113 -37.299888 -106.77307 -25.32584 -33.64886 14.699045 1.492595 11.533706 3.451467 -23.676276 -0.70897 -105.734503 -16.560056 -152.160128 7.942928 22.978876 -147.71547 -160.469354 28.845055 141.907806 -23.846748 23.909523 9.389148 -147.801802 -57.089469 119.380223 -157.300009 -71.043102 133.918999 36.29721 47.044546 10.578623 -45.586188 -73.012709 -69.211133 -48.973763 46.377664 56.809532 -128.692052 -23.233068 -149.211889 -133.225255 31.319619 -146.540584 -135.233406 -46.448517 -70.566383 3.131978 12.620171 -70.831091 -5.322562 6.972043 9.439644 106.462112 17.001094 -134.029418 6.162082 27.336193 114.700787 -176.9723 -19.79908 -137.125368 7.831139 17.331223 -21.249426 72.132967 -68.846515 143.116468 135.734746 -22.639932 -127.457378 163.797034 11.657449 -126.56091 121.142551 56.595525 -95.401843 19.734261 -33.559843 -28.42565 -12.098145 50.996514 1.811894 -142.859512 -24.91634 -155.160354 109.425215 -29.261109 82.292418 152.050534 48.030786 78.540521 18.992774 -4.098288 13.978945 -33.424363 22.003954 45.401606 33.552663 18.444139 137.832188 -23.535409 30.414143 134.056286 -105.580231 57.171595 -59.144723 -168.15406 3.845899 -92.964334 -80.652787 -14.827607 4.587691 92.391286 -56.433865 -164.671088
-1.2652 54.7481 79.0238 -157.928933 48.754112 -153.271463 1.24418 13.727903 14.101251 6.476816 -15.091661 -9.230188 -7.069488 37.961379 -140.492019 20.416979 46.48288 173.979968 -143.069306 -18.463338 -51.907604 21.171583 3.400691 18.05093 6.751014 -30.197447 1.566854 41.295707 -1.620358 -45.270849 7.845315 63.289689 112.007543 -6.402321 -30.642211 -0.575756 -0.507089 0.21514 4.678451 -69.622013 51.303021 61.171963 -97.642701 49.439844 90.983476 175.09173 75.121444 125.828529 -177.912218 -14.090418 149.281335 2.698137 11.255534 6.985383 -106.892987 -39.435269 -130.239177 -101.30163 -44.397266 -166.241355 -126.49542 -56.50374 -66.165827 -150.626693 20.010632 -73.733634 -6.517154 4.569118 13.143963 -55.249164 -8.055033 -36.846658 -161.267607 -7.924549 -69.935145 -175.72901 -5.63907 -132.157662 -123.72349 -20.697693 -50.667419 -148.340676 -41.680129 -124.407499 -19.090764 3.734869 0.578726 49.642482 16.019884 -57.325376 9.327176 -29.553903 7.744582 148.278799 -64.112025 -127.153008 -11.002621 7.503889 1.943419 -15.227284 -39.242562 -58.330576 -21.697967 16.169618 9.857796 24.351624 11.078762 -55.368078 167.742828 86.149019 13.50164 71.121297 71.765293 162.371685 22.719863 9.257846 -55.957288 23.383257 -15.110157 -37.591699 61.281454 51.355289 52.852355 -107.551014 -48.050043 -16.045599 66.927858 63.754319 -150.046072 0.659569 -15.757836 98.599562
-0.6948 54.0551 80.9545 -157.794076 45.843152 -152.552099 4.270013 13.86589 -7.898148 10.27904 -14.985202 12.15028 -5.696603 25.667478 -40.714657 31.516904 -13.733721 83.514139 -148.195097 -15.931115 -52.315084 23.839994 5.582107 26.008207 -112.876383 58.563383 114.940821 -99.131279 4.068741 117.318486 -165.063999 25.519114 -68.779155 -6.663384 -46.857649 -8.667842 -47.834351 23.693282 24.994517 41.661481 -4.449724 -7.617868 -18.132971 34.759733 8.897936 17.198973 -41.822093 38.07481 -7.977664 2.831379 2.488786 -7.569567 6.437529 -13.69467 22.109136 62.106183 -10.384242 160.927831 -21.990235 171.809625 160.905622 45.118678 -150.870949 160.413489 -34.638044 -154.442911 -5.663297 36.774789 6.247906 -94.871257 -35.181144 -74.33913 17.091658 37.682922 -66.060083 5.229964 24.869629 9.557347 -2.962275 -12.120967 -19.521212 119.084864 -43.472034 -137.036515 135.197226 -27.721436 -119.787927 159.789817 26.022388 -164.488891 6.480307 -39.340658 17.030706 -3.699455 60.377016 -28.470563 -10.109511 -6.313543 -1.175494 96.596447 27.059131 -76.617521 -15.831287 -52.054613 29.794562 11.169917 -6.782298 -48.596589 104.325865 79.178494 68.976221 64.534561 81.246572 162.938525 32.985521 17.458474 89.38615 83.88286 22.605022 -171.401909 -80.562697 13.949116 -34.188226 148.213257 -27.01556 15.741803 -62.750754 72.240403 125.41521 -2.454595 9.396527 -52.319219
0.0489 53.1019 82.6937 -158.156712 43.262786 -152.735459 5.535279 10.566877 130.415262 -15.243626 3.494668 -126.896034 -4.931565 33.508859 -107.423687 31.558163 22.408769 137.252457 -131.040931 -24.372113 -50.751314 19.734417 5.642326 31.635892 -148.832676 32.357957 151.211358 85.117949 -17.824404 92.490082 -164.117693 13.041013 22.985285 -156.633448 7.47906 139.413629 -36.896435 23.110639 26.529719 -94.177169 -52.00447 140.489272 -147.842736 -25.593 135.939247 65.415156 64.376018 -81.289777 -165.783231 -28.389446 140.315822 -149.739779 6.263835 116.238809 -126.497747 -34.5858 -139.963369 79.628035 58.54079 -41.656879 -137.971029 -33.076784 -101.487254 42.460535 11.808604 -59.442722 148.510234 -22.629754 -177.187832 154.923559 -37.822503 131.79901 25.964022 -68.629464 -12.830276 9.421696 42.914975 3.633939 176.638658 -6.708326 -88.651547 52.177688 -26.565082 32.11379 141.050973 -32.087685 -111.185186 -108.269937 74.59071 100.548753 6.953243 27.629668 4.525558 -13.51755 1.544955 -24.982231 -13.20049 3.359663 -6.716823 154.502676 36.806475 -107.36098 66.621617 21.03285 -177.637851 -33.340371 -51.647771 39.935677 101.263105 73.133552 69.674167 74.605184 85.880429 -151.844709 38.433232 -7.12866 103.050714 -32.794725 54.104869 141.09521 7.451823 -0.123635 24.05806 75.092267 -81.096925 -2.068539 -86.948634 29.491786 176.759055 -148.124513 -35.091965 87.632323
0.8477 52.81249999999999 83.8974 -159.031132 40.72421 -154.012161 12.215412 10.979198 -111.610048 12.338836 5.118906 115.817031 16.595282 23.071528 102.904449 -23.153329 13.500848 -76.120579 -49.671583 6.613783 -14.23234 16.969599 4.854882 31.726963 -16.78778 54.71276 14.408798 -104.966447 -38.850048 161.222386 160.774588 4.584551 -54.34494 -29.010081 -3.959959 1.679525 -158.618509 -18.674537 84.921574 -1.602042 -48.148532 48.635666 -139.933066 -43.511796 146.618219 -63.156962 -77.989902 -120.072595 28.012952 -43.051135 -1.062819 -26.9967 32.207889 -1.28954 22.582506 71.877994 -18.986526 -48.986696 40.11496 33.72523 -112.339437 -29.444784 -83.241797 160.988172 38.554475 -62.237725 151.834551 -45.848673 -174.295661 -122.65385 51.373142 110.95573 -136.14496 -34.822724 -85.669978 -162.500585 -18.168996 -140.080597 -13.794029 -11.142663 5.033552 -16.257716 8.61401 -26.778574 22.450705 23.337521 -42.850152 50.785801 0.068847 17.719436 141.965578 33.150981 -133.15648 162.126697 29.344918 -126.799147 124.267821 -2.392276 -168.176046 -145.828443 68.67002 76.73077 -75.521578 -19.341714 -49.489872 53.189354 38.037837 -3.995639 -14.886679 -6.488818 -22.084018 1.778861 17.108048 -7.09169 -5.420361 36.353468 149.544243 21.072839 21.956774 -161.366808 72.479127 72.818322 92.790148 -135.969346 -10.90239 -163.033835 -86.74948 -36.008246 157.851394 -14.580473 19.525933 -58.82351
1.5827 52.898 84.3854 -159.443703 39.40274 -155.410001 8.540412 11.81957 81.369252 -11.781247 -5.676596 -75.365683 -2.240228 13.739653 -44.409221 20.538284 -6.182929 65.358162 -12.128069 -2.250844 20.953563 19.025928 3.974766 23.398121 -9.815084 -51.775392 -25.867866 -29.963528 -12.754739 -63.627648 164.953715 17.380463 -52.015359 -28.189573 -10.428395 0.32396 -152.120165 -17.398367 91.612254 -141.220659 -20.873678 46.753555 16.880492 -57.233629 -44.140666 -165.945588 -8.550965 121.04651 -144.638459 -2.489446 146.577224 9.792765 6.545168 10.718394 27.902327 71.327668 -28.649676 -154.73888 38.41847 129.759727 27.427267 48.778563 -25.504159 169.866789 -53.337028 159.708356 155.410588 -20.413172 -161.467877 56.325746 -44.889902 49.040984 -150.227878 -1.65244 154.250672 167.134324 68.527626 -142.596727 14.302413 24.882178 -2.910272 142.067272 -31.509515 -60.391578 -18.413202 -0.394551 -22.524257 -166.778352 21.446566 -85.901774 54.154674 50.832628 -49.734513 153.379228 -10.5064 -128.036845 111.497394 15.035821 -150.405221 -90.413618 40.877074 24.574631 49.886886 27.458675 -136.883114 102.357995 19.866149 138.82641 -60.271076 39.986506 -65.423169 47.07517 38.543761 107.337375 19.961727 23.812507 -77.066085 -171.115998 -28.274403 11.803956 -31.987156 -6.202899 -48.673 102.309467 -20.712438 -163.137804 88.135362 -67.76646 -8.040145 -155.454628 -27.425285 82.635786
2.2544 53.0906 84.2591 -159.279224 39.319597 -156.114512 9.243621 9.347498 102.779391 -9.279331 -1.114307 -96.208218 -3.149032 16.799992 -70.863004 26.881166 0.547646 87.603737 9.450912 2.301391 27.31524 33.01983 3.613841 12.150676 -21.283834 -67.893591 -41.086949 -85.579747 -33.499389 -72.013718 -25.892642 36.993117 -138.778245 -158.244949 -9.904301 150.484497 -166.883625 -26.252274 89.249479 -134.454591 -17.670029 41.296499 19.320423 -64.844671 -46.183485 0.274714 -18.341815 -3.596086 14.598332 -25.207192 -13.458589 -4.341536 1.689819 7.04958 -84.622092 -45.378064 -88.780722 -108.633085 -30.527552 -158.748823 -134.685455 -10.51244 -109.584372 -128.429718 -4.226677 -93.909685 -12.178704 -38.209617 -0.984248 -54.491077 -1.08723 -4.267125 13.241728 38.190498 -46.67611 4.359218 50.813127 3.805375 6.327825 17.544969 2.623658 -7.190564 -10.946816 -41.187653 137.681788 -17.732534 -100.406911 158.706613 85.799908 -172.818285 160.068076 -3.564165 -131.066875 170.858923 19.806085 -126.11661 162.687916 -64.670933 -147.693527 136.786396 5.491021 -104.799151 61.542141 37.121058 -136.406793 135.324895 58.195244 151.39926 75.348202 29.771784 59.698609 -65.104931 58.225347 -79.762895 -25.356322 35.797142 -82.929014 12.311659 -53.491636 103.649065 39.751194 -22.217801 25.559637 5.028354 -55.738741 -179.441504 85.04907 -68.916668 164.102821 137.961778 -35.443359 -128.15663
